<svg width="22" height="30" viewBox="0 0 22 30" fill="none" xmlns="http://www.w3.org/2000/svg">
<path d="M13.0002 0.893311C13.0002 0.893311 13.9868 4.42664 13.9868 7.29331C13.9868 10.04 12.1868 12.2666 9.44016 12.2666C6.68016 12.2666 4.60016 10.04 4.60016 7.29331L4.64016 6.81331C1.94683 10.0133 0.333496 14.16 0.333496 18.6666C0.333496 24.56 5.10683 29.3333 11.0002 29.3333C16.8935 29.3333 21.6668 24.56 21.6668 18.6666C21.6668 11.48 18.2135 5.06664 13.0002 0.893311ZM10.6135 25.3333C8.24016 25.3333 6.32016 23.4666 6.32016 21.1466C6.32016 18.9866 7.72016 17.4666 10.0668 16.9866C12.4268 16.5066 14.8668 15.3733 16.2268 13.5466C16.7468 15.2666 17.0135 17.08 17.0135 18.9333C17.0135 22.4666 14.1468 25.3333 10.6135 25.3333Z" fill="#FF3214"/>
</svg>
